<svg xmlns="http://www.w3.org/2000/svg" viewBox="0 0 840 248" role="img" aria-labelledby="t6 d6">
  <title id="t6">Four failure modes of snapshot search</title>
  <desc id="d6">Budget split, sticky wrong state, handoff cost, and weak selection.</desc>
  <rect width="840" height="248" fill="#ffffff"/>
  <defs>
    <marker id="fig6arrow" viewBox="0 0 10 10" refX="9" refY="5" markerWidth="6" markerHeight="6" orient="auto-start-reverse">
      <path d="M 0 0 L 10 5 L 0 10 z" fill="#222222"/>
    </marker>
  </defs>
  <rect x="28" y="18" width="186" height="168" fill="#ffffff" stroke="#222222" stroke-width="1"/><rect x="69.0" y="72" width="20" height="36" fill="#ffffff" stroke="#222222" stroke-width="1"/>
<rect x="91.0" y="72" width="20" height="36" fill="#ffffff" stroke="#222222" stroke-width="1"/>
<rect x="113.0" y="72" width="20" height="36" fill="#ffffff" stroke="#222222" stroke-width="1"/>
<rect x="147.0" y="82" width="12" height="26" fill="#d6e8f5" stroke="#0072b2" stroke-width="1.2"/>
<rect x="161.0" y="90" width="12" height="18" fill="#ffffff" stroke="#0072b2" stroke-width="1"/>
<rect x="175.0" y="90" width="12" height="18" fill="#ffffff" stroke="#0072b2" stroke-width="1"/><text x="38" y="36" font-family="Times New Roman, Times, Liberation Serif, serif" font-size="13" font-style="italic" fill="#222222">(a)</text><text x="121.0" y="208" text-anchor="middle" font-family="Times New Roman, Times, Liberation Serif, serif" font-size="13" fill="#222222">Budget split</text><text x="121.0" y="226" text-anchor="middle" font-family="Times New Roman, Times, Liberation Serif, serif" font-size="11" fill="#888888">root vs children</text><rect x="230" y="18" width="186" height="168" fill="#ffffff" stroke="#222222" stroke-width="1"/>
  <rect x="305.0" y="62" width="36" height="48" fill="#ffffff" stroke="#222222" stroke-width="1.1"/>
  <line x1="313.0" y1="74" x2="333.0" y2="74" stroke="#222222" stroke-width="1"/>
  <line x1="313.0" y1="82" x2="329.0" y2="82" stroke="#222222" stroke-width="1"/>
  <line x1="315.0" y1="92" x2="331.0" y2="104" stroke="#0072b2" stroke-width="1.4"/>
  <line x1="331.0" y1="92" x2="315.0" y2="104" stroke="#0072b2" stroke-width="1.4"/>
  <path d="M 345.0 78 C 363.0 70, 363.0 110, 327.0 112" fill="none" stroke="#222222" stroke-width="1.1" marker-end="url(#fig6arrow)"/>
<text x="240" y="36" font-family="Times New Roman, Times, Liberation Serif, serif" font-size="13" font-style="italic" fill="#222222">(b)</text><text x="323.0" y="208" text-anchor="middle" font-family="Times New Roman, Times, Liberation Serif, serif" font-size="13" fill="#222222">Sticky wrong state</text><text x="323.0" y="226" text-anchor="middle" font-family="Times New Roman, Times, Liberation Serif, serif" font-size="11" fill="#888888">faithful mistakes</text><rect x="432" y="18" width="186" height="168" fill="#ffffff" stroke="#222222" stroke-width="1"/>
  <rect x="473.0" y="62" width="52" height="44" fill="#ffffff" stroke="#0072b2" stroke-width="1.4"/>
  <rect x="481.0" y="70" width="16" height="12" fill="#ffffff" stroke="#0072b2" stroke-width="1"/>
  <ellipse cx="511.0" cy="76" rx="8" ry="4" fill="none" stroke="#0072b2" stroke-width="1"/>
  <rect x="503.0" y="76" width="16" height="8" fill="none" stroke="#0072b2" stroke-width="1"/>
  <ellipse cx="511.0" cy="84" rx="8" ry="4" fill="none" stroke="#0072b2" stroke-width="1"/>
  <circle cx="551.0" cy="84" r="16" fill="none" stroke="#888888" stroke-width="1.2" stroke-dasharray="3 2"/>
<text x="442" y="36" font-family="Times New Roman, Times, Liberation Serif, serif" font-size="13" font-style="italic" fill="#222222">(c)</text><text x="525.0" y="208" text-anchor="middle" font-family="Times New Roman, Times, Liberation Serif, serif" font-size="13" fill="#222222">Handoff cost</text><text x="525.0" y="226" text-anchor="middle" font-family="Times New Roman, Times, Liberation Serif, serif" font-size="11" fill="#888888">machine, not memory</text><rect x="634" y="18" width="186" height="168" fill="#ffffff" stroke="#222222" stroke-width="1"/><rect x="689.0" y="71.5" width="22" height="16" fill="#ffffff" stroke="#222222" stroke-width="1.0"/>
<rect x="716.0" y="71.5" width="22" height="16" fill="#ffffff" stroke="#222222" stroke-width="1.0"/>
<rect x="743.0" y="71.5" width="22" height="16" fill="#d6e8f5" stroke="#0072b2" stroke-width="1.4"/>
<rect x="689.0" y="92.5" width="22" height="16" fill="#ffffff" stroke="#222222" stroke-width="1.0"/>
<rect x="716.0" y="92.5" width="22" height="16" fill="#ffffff" stroke="#222222" stroke-width="1.0"/>
<rect x="743.0" y="92.5" width="22" height="16" fill="#ffffff" stroke="#222222" stroke-width="1.0"/>
  <text x="755.0" y="76" text-anchor="middle" font-family="Times New Roman, Times, Liberation Serif, serif" font-size="11" fill="#0072b2">✓</text>
<text x="644" y="36" font-family="Times New Roman, Times, Liberation Serif, serif" font-size="13" font-style="italic" fill="#222222">(d)</text><text x="727.0" y="208" text-anchor="middle" font-family="Times New Roman, Times, Liberation Serif, serif" font-size="13" fill="#222222">Weak selection</text><text x="727.0" y="226" text-anchor="middle" font-family="Times New Roman, Times, Liberation Serif, serif" font-size="11" fill="#888888">busy ≠ solved</text>
</svg>
